# xmcd CD database file
#
# Track frame offsets:
#	150
#	14045
#	28698
#	49597
#	72788
#	88209
#	102652
#	115443
#	133757
#	145490
#	166655
#	185431
#	202836
#	221015
#	238178
#	250024
#
# Disc length: 3544 seconds
#
# Revision: 1
# Processed by: cddbd v1.5.2PL0 Copyright (c) Steve Scherf et al.
# Submitted via: CDex 1.77
#
DISCID=ed0dd610
DTITLE=The Highwaymen - The Very Best Of The Highwaymen
DYEAR=1900
DGENRE=Country
TTITLE0=Highwaymen
TTITLE1=Silver Stallion
TTITLE2=Desperados Waiting For A Train
TTITLE3=City of New Orleans
TTITLE4=Big River
TTITLE5=The Last Cowboy Song
TTITLE6=Live Forever
TTITLE7=Born And Raised In Black And White
TTITLE8=One Too Many Mornings
TTITLE9=The Road Goes On Forever
TTITLE10=American Remains
TTITLE11=Against The Wind
TTITLE12=Living Legend
TTITLE13=Deportee (Plane Wreck At Los Gatos)
TTITLE14=Welfare Line
TTITLE15=The King Is Gone (So Are You)
EXTD=
EXTT0=
EXTT1=
EXTT2=
EXTT3=
EXTT4=
EXTT5=
EXTT6=
EXTT7=
EXTT8=
EXTT9=
EXTT10=
EXTT11=
EXTT12=
EXTT13=
EXTT14=
EXTT15=
PLAYORDER=
